<svg version="1.1" id="TFNSW_Trans_Rel1_Hor_1Col.eps" xmlns="http://www.w3.org/2000/svg" x="0" y="0" viewBox="0 0 200 50" style="enable-background:new 0 0 200 50" xml:space="preserve"><style>.st0{fill:#15397f}.st1{fill:#e3173e}</style><path class="st0" d="M53.8 45.6c-.2 0-.4-.2-.4-.4V4.3c0-.2.2-.4.5-.3.2 0 .3.2.3.3v40.9c0 .2-.2.4-.4.4zM38.1 27.7l-1.9 7.9-2-7.9h-2.6l-2 7.8-1.8-7.8h-2.9L28.2 40H31l1.9-7.8 2 7.8h2.8v-.1L41 27.6l-2.9.1zm-26.8 7.9l-6.8-7.9H1.7V40h2.8v-7.9l6.8 7.9h2.9V27.7h-2.8v7.9h-.1zM1.4 43.8c0-1.1.9-2 2-2 .5 0 1.1.2 1.5.5l-.4.5c-.3-.3-.7-.4-1.1-.4-.7 0-1.3.6-1.3 1.3 0 .7.5 1.3 1.2 1.4h.1c.3 0 .7-.1.9-.3v-.7h-1v-.6H5v1.6c-.5.4-1 .6-1.6.6-1 .1-1.9-.7-2-1.9 0 .1 0 .1 0 0zM8.7 43.8c0-.7-.5-1.3-1.3-1.4h-.1c-.7 0-1.3.6-1.3 1.3v.1c0 .7.6 1.3 1.3 1.4.8 0 1.4-.6 1.4-1.4zm-3.3 0c0-1.1.9-2 2-2s2 .9 2 2-.9 2-2 2-2-.9-2-2zM9.4 41.9h.7l1.2 2.9 1.1-2.9h.8l-1.6 3.8H11zM13.6 41.9h2.9v.6h-2.2v1h1.9v.6h-1.9v1h2.2v.6h-2.9zM18.8 43.8c.5 0 .8-.2.8-.6s-.3-.6-.8-.6h-1v1.3l1-.1zm-1.6-1.9h1.7c.4 0 .8.1 1.1.4.2.2.3.5.3.8 0 .6-.4 1-.9 1.2l1 1.4h-.8l-.9-1.3h-.9v1.3h-.7l.1-3.8zM20.9 41.9h.6l2.1 2.6v-2.6h.6v3.8h-.5L21.6 43v2.7h-.7zM25 41.9h.7l1.1 1.8 1.2-1.8h.7v3.8H28V43l-1.2 1.8-1.2-1.8v2.7H25zM29.4 41.9h2.8v.6h-2.1v1H32v.6h-1.9v1h2.2v.6h-2.9zM32.9 41.9h.6l2.1 2.6v-2.6h.7v3.8h-.6L33.6 43v2.7h-.7zM38 42.5h-1.2v-.6h3.1v.6h-1.2v3.2H38zM14.9 38.3l1.7-2c1 .9 2.4 1.5 3.8 1.5 1.1 0 1.8-.5 1.8-1.2s-.4-1.1-2.5-1.6c-2.5-.6-4.2-1.3-4.2-3.8 0-2.3 1.8-3.8 4.4-3.8 1.7 0 3.3.5 4.7 1.5L23.2 31c-.9-.7-2.1-1.2-3.3-1.2-1.1 0-1.6.5-1.6 1.1 0 .8.5 1.1 2.7 1.6 2.6.7 4 1.6 4 3.8 0 2.5-1.9 3.9-4.6 3.9-2.1.1-4-.6-5.5-1.9z"/><path class="st1" d="M9.8 19.4c.9 1.7 2.4 3 4.2 3.7.5.2 1 .3 1.6.3l-.3-.2c-1-.9-1.8-2-2.2-3.2-.6-1.9-.8-3.8-.8-5.8 0-2.1.2-4.2.7-6.3.1-.4.3-.7.7-.9-.1-.1-.3-.2-.4-.3-1.4-.9-2.8-1.6-4.2-2.3l-.5-.1h-.2c-.3 0-.4.2-.5.4 0 0-.1.5-.1 1.2S7.6 7.7 7.6 9v1.1c0 3.2.8 6.4 2.2 9.3zM22.9 23.8c.6 0 1.2-.2 1.8-.4l.4-.2c1.4-.8 2.4-2 2.9-3.6.5-1.8.8-3.6.7-5.5 0-1.9-.2-3.8-.5-5.7 0-.3-.1-.5-.1-.5 0-.2-.1-.3-.2-.3s-.1 0-.2.1l-.2.2-.5.5c-.7.6-1.3 1.2-1.9 1.8-1.7 1.8-3 4-3.8 6.3-.4 1.3-.7 2.6-.7 3.9 0 .7.1 1.4.4 2 .2.5.6.9 1.2 1.1.2.3.5.3.7.3z"/><path class="st1" d="M20.5 15.9v-.2c-1.7-4.2-5.6-7.4-6.1-7.8l-.2-.2c-.1 0-.1-.1-.2-.1s-.2.2-.3.3c0 .1 0 .2-.1.5s-.1.7-.2 1.3c-.2 1.4-.3 2.9-.3 4.3 0 1.9.2 3.7.7 5.5.5 1.6 1.6 2.9 3.1 3.6.1 0 .1 0 .2.1.6.3 1.3.5 2 .5.3 0 .6 0 .9-.1.1 0 .3-.1.4-.2-.1-.2-.2-.3-.3-.5-.3-.8-.5-1.6-.5-2.4 0-1.4.3-2.8.8-4.2 0-.1.1-.3.1-.4zM21.1 14.6c1-2.1 2.4-3.9 4-5.6-.5-1.4-1-2.7-1.6-4s-1.3-2.5-2-3.7l-.2-.3c-.2-.3-.3-.3-.3-.3s-.2.1-.3.2c-.1.1-.1.2-.2.3l-.6 1c-.4.6-.9 1.5-1.4 2.7-.1.2-.2.5-.4.8-.5 1-.9 2.1-1.2 3.1 1.8 1.7 3.1 3.6 4.2 5.8zM28.4 6.9c.3.2.6.5.6.9.4 2.1.6 4.2.6 6.3 0 1.9-.2 3.9-.8 5.8-.4 1.3-1.1 2.4-2.1 3.2-.1.1-.2.2-.3.2.5 0 1-.1 1.5-.3 1.8-.7 3.3-2 4.1-3.7 1.7-2.9 2.1-6.5 2.2-9.4V8.8c0-1.1 0-2.1-.2-3.2.1-.6 0-1 0-1-.1-.3-.2-.5-.5-.5-.1 0-.2 0-.2.1-.1 0-.2.1-.3.2-.2.1-.5.2-.9.4H32c-1.1.5-2.2 1.1-3.2 1.8h-.1l-.3.3zM25.6 7.7l3-2.1.2-.1c-.2-1.2-.5-2.3-.9-3.5-.1-.2-.2-.4-.5-.4h-.1c-.1 0-.1 0-.2.1 0 0-.5.3-1.2.8-.4.3-1.1.8-1.9 1.5.1.1.1.3.2.4.5 1.1 1 2.2 1.4 3.3zM16.4 7.7c.4-1.1.9-2.2 1.4-3.3L18 4c-.6-.5-1.3-1-1.9-1.5s-1.2-.8-1.2-.8c-.1-.1-.1-.1-.2-.1h-.1c-.2 0-.4.1-.5.4-.4 1.1-.7 2.3-.9 3.5.1 0 .1.1.2.1l3 2.1zM4.3 15c.9-.5 1.9-.9 2.8-1.2-.2-1.1-.3-2.3-.3-3.5v-.5c-.5.1-.8 0-1.1 0H2.6c-.3 0-.5.2-.6.4-.1.1-.1.3-.1.5 0 .4.3 2.1 2.3 4.5 0-.1 0-.2.1-.2zM37.8 15.1c2-2.4 2.2-4.1 2.3-4.5 0-.2 0-.3-.1-.5s-.4-.4-.6-.4H38c-.4 0-1.1 0-1.8.1-.3 0-.6 0-.9.1v.5c0 1.2-.1 2.3-.3 3.4.9.4 1.8.8 2.8 1.3 0-.1 0 0 0 0z"/><path class="st1" d="M41.6 18.4l-.3-.2c-.2-.1-.4-.2-.6-.4-.1 0-.2-.1-.2-.2-.4-.2-.9-.6-1.5-.9l-.2-.1-1.3-.7-.3-.1c-.8-.4-1.6-.8-2.4-1.1-.3 1.8-1 3.6-1.9 5.2-.7 1.2-1.6 2.3-2.8 3.1l-.5.3c9.2-.5 11.9-3.5 12.1-3.8 0-.1.1-.1.1-.2s.1-.2.1-.3c0-.2-.1-.5-.3-.6zM11.8 23c-1.1-.8-2.1-1.9-2.8-3.1-.9-1.6-1.5-3.4-1.8-5.2-.9.3-1.7.7-2.4 1.1-.1.1-.3.1-.4.2-1.3.7-2.5 1.4-3.7 2.2-.2.1-.3.2-.3.2-.3.1-.4.4-.4.7 0 .1 0 .2.1.4v.1l.1.1c.1.2.3.3.4.4.7.6 1.5 1 2.3 1.4 3 1.2 6.1 1.8 9.4 1.9l-.5-.4zM33.6 24c-.7 0-1.5.1-2.2.2-.2 0-.3 0-.5.1-.6.1-1.2.1-1.8.1h-4.5c-.6 0-1.3.1-1.9.2l-.6.1c-.1 0-.1.1-.1.1h.2c.5 0 1-.1 1.5-.1 1.3 0 2.7.2 4 .6 1.1.3 2.2.5 3.4.5 1.1.1 2.1-.2 3-.7l.1-.1c.1-.2.2-.4.2-.6v-.2c-.1-.1-.3-.2-.8-.2zM19.8 24.7c-.2-.1-.4-.1-.6-.1-.6-.1-1.3-.2-1.9-.2h-4.5c-.6 0-1.2 0-1.8-.1-.2 0-.3 0-.5-.1-.6-.1-1.4-.2-2.1-.2-.5 0-.7.1-.7.3v.3c0 .2.1.4.2.6 0 .1.1.1.2.2.9.5 1.9.7 2.9.6 1.2 0 2.3-.2 3.4-.5a13.2 13.2 0 015.4-.5h.2c-.1-.2-.1-.2-.2-.3z"/><path d="M127.2 31.8v1.1c0 .4-.4.8-.8.8h-3.6v11.1c0 .4-.4.8-.8.8h-1.6c-.4 0-.8-.4-.8-.8V33.7H116c-.4 0-.8-.4-.8-.8v-1.1c0-.4.4-.8.8-.8h10.3c.5 0 .9.4.9.8zm63.3 9c0-.4 0-.9.1-1.3s.3-.7.5-1.1c.2-.3.5-.6.9-.7.4-.2.9-.3 1.4-.3h.2c.4 0 .8-.4.8-.8v-1.1c0-.1 0-.2-.1-.3-.1-.3-.4-.5-.7-.5-.2 0-.4 0-.6.1l-.3.1c-.3.1-.7.3-.9.5-.3.2-.6.4-.8.7l-.6.9v-1.2c0-.4-.4-.8-.8-.8h-1.1c-.4 0-.8.4-.8.8v8.9c0 .4.4.8.8.8h1.3c.4 0 .8-.4.8-.8l-.1-3.9zm-62.1 0c0-.4 0-.9.1-1.3s.3-.7.5-1.1c.2-.3.5-.6.9-.7.4-.2.9-.3 1.3-.3h.2c.4 0 .8-.4.8-.8v-1.1c0-.1 0-.2-.1-.3-.1-.3-.4-.5-.7-.5-.2 0-.4 0-.6.1l-.3.1c-.4.1-.7.3-1 .5s-.6.4-.8.7l-.6.9v-1.2c0-.4-.4-.8-.8-.8h-1.1c-.4 0-.8.4-.8.8v8.9c0 .4.4.8.8.8h1.3c.4 0 .8-.4.8-.8l.1-3.9zm24.6-3.5c-.1-.5-.3-1-.6-1.4s-.7-.7-1.2-.9c-.6-.2-1.3-.3-1.9-.3a3.53 3.53 0 00-3.2 1.7h-.1v-.7c0-.4-.4-.8-.8-.7h-1.1c-.4 0-.8.4-.8.8v8.9c0 .4.4.8.8.8h1.3c.4 0 .8-.4.8-.8V40c-.1-.8.1-1.5.5-2.2l.1-.1c.4-.5 1.1-.8 1.7-.7.6-.1 1.1.2 1.4.7.3.6.4 1.3.4 2v5.2c0 .4.4.8.8.8h1.3c.4 0 .8-.4.8-.8v-4.8c0-1.1-.1-1.9-.2-2.8zm10.4 3.7c-.2-.3-.4-.6-.8-.8-.3-.2-.7-.4-1.1-.5-.4-.1-.8-.3-1.2-.3l-1.2-.3-1.1-.3a3 3 0 01-.8-.4c-.2-.2-.3-.4-.3-.6 0-.2.1-.4.2-.5.1-.1.2-.2.4-.3s.3-.1.5-.1h.5c.5 0 .9.1 1.3.3.2.1.4.3.5.6.1.3.4.5.7.5h1.3c.4 0 .7-.3.7-.6v-.2c-.1-.3-.2-.6-.4-.8-.3-.4-.6-.8-1.1-1-.4-.3-.9-.5-1.4-.5-.5-.1-1.1-.2-1.7-.2-.6 0-1.1 0-1.7.2-.5.1-1 .3-1.5.5-.4.2-.8.6-1.1 1-.3.5-.4 1.1-.4 1.7 0 .4.1.8.3 1.2.2.3.4.6.8.8.3.2.7.4 1.1.5.4.1.8.3 1.2.3.8.2 1.6.4 2.4.7.6.2.9.5.9 1 0 .2-.1.5-.2.7-.1.2-.3.3-.5.4-.2.1-.4.2-.6.2-.2.1-.4.1-.6.1-.3 0-.6 0-.8-.1-.3-.1-.5-.2-.7-.3s-.4-.3-.5-.5-.2-.7-.9-.8h-1.3c-.4 0-.7.3-.7.7v.1c.1.4.2.7.4 1 .3.5.7.9 1.1 1.1.5.3 1 .5 1.6.6s1.2.2 1.8.2 1.2-.1 1.8-.2c.5-.1 1.1-.3 1.6-.6s.8-.7 1.1-1.1c.3-.5.5-1.1.4-1.8.2-.8.1-1.2 0-1.6zm12.4-.7c0 .8.1 1.5.4 2.3.2.7.6 1.2 1.1 1.7s1 .9 1.7 1.1c.7.3 1.5.4 2.2.4.8 0 1.5-.1 2.3-.4.7-.2 1.2-.6 1.7-1.1s.9-1.1 1.1-1.7c.3-.7.4-1.5.4-2.3s-.1-1.6-.4-2.3c-.2-.7-.6-1.2-1.1-1.8-.5-.5-1.1-.9-1.7-1.1-.7-.3-1.5-.4-2.3-.4a5.38 5.38 0 00-3.9 1.5c-.5.5-.9 1.1-1.1 1.8-.3.8-.4 1.5-.4 2.3zm2.9 0c0-.4 0-.8.1-1.2s.2-.7.4-1.1c.2-.3.5-.6.8-.8 1.1-.7 2.6-.3 3.3.8.2.3.3.7.4 1.1.1.4.1.8.1 1.2s0 .8-.1 1.2-.2.8-.4 1.1-.5.6-.8.8c-.4.2-.8.3-1.2.3s-.9-.1-1.2-.3-.6-.4-.8-.8c-.2-.3-.3-.7-.4-1.1-.1-.4-.2-.8-.2-1.2zm-3.6.1c0 .7-.1 1.3-.3 2-.2.6-.5 1.2-.9 1.7s-.9.9-1.4 1.2c-1.2.6-2.6.6-3.8.1-.1-.1-.3-.1-.4-.2-.1 0-.2-.1-.3-.2l-.1-.1-.4-.5-.1-.1v4.2c0 .4-.4.8-.8.8h-1.3c-.4 0-.8-.4-.8-.8V35.9c0-.4.4-.8.8-.8h1.1c.4 0 .8.3.8.7v.7c.3-.5.8-1 1.3-1.2.6-.3 1.2-.4 1.8-.4.7 0 1.5.1 2.1.5.6.3 1.1.7 1.5 1.2s.7 1.2.9 1.8c.2.6.3 1.3.3 2zm-2.9-.1c0-.4 0-.8-.1-1.2s-.2-.8-.4-1.1-.5-.6-.8-.8c-.7-.4-1.6-.4-2.4 0-.3.2-.6.5-.8.8s-.4.7-.4 1.1c-.1.4-.1.8-.1 1.3 0 .4 0 .8.1 1.2s.2.7.4 1.1c.2.3.5.6.8.7.7.4 1.6.4 2.4 0 .3-.2.6-.4.8-.7s.3-.7.4-1.1c.1-.4.1-.8.1-1.3zm22.8 2.8c0 .4.1.9.3 1.3.2.3.4.6.7.8s.7.3 1.1.4c.2 0 .4.1.6.1h1.6c.4 0 .7-.4.7-.8v-.7c0-.4-.4-.8-.8-.8h-.2c-.3 0-.6-.1-.8-.2-.2-.3-.3-.6-.2-1V37h1.6c.3 0 .5-.2.5-.5v-.9c0-.3-.2-.5-.5-.5H198v-2.4c0-.4-.4-.8-.8-.8h-1.3c-.4 0-.8.4-.8.8l-.1 10.4zm-62.2-5.7c-.2.7.3.9.7.9h1.2c1.1 0 .7-.7 1.4-1.2.4-.3.9-.4 1.4-.4.2 0 .5 0 .7.1.2 0 .4.1.6.2.2.1.3.3.4.4.1.2.2.5.1.7 0 .3-.1.5-.3.7s-.5.3-.8.4c-.4.1-.7.2-1.1.2-.4 0-.9.1-1.3.2l-1.3.3c-.4.1-.8.3-1.1.5s-.6.6-.8.9c-.2.5-.3 1-.3 1.5s.1 1 .3 1.4.4.7.8 1c.3.3.7.5 1.1.6.5.1.9.2 1.4.2.7 0 1.3-.1 1.9-.3.6-.2 1.2-.5 1.6-1 0 .2 0 .4.1.5.1.5.7.5.7.5h1.5c.7 0 .6-.5.5-1s-.1-.9-.1-1.4v-4.7c0-.5 0-1.1-.1-1.6 0-.3-.2-.5-.3-.7-.3-.4-.7-.7-1.1-.9-.5-.2-1-.4-1.5-.4-.5-.1-1.1-.1-1.6-.1-.6 0-1.2.1-1.8.2-.5.1-1.1.3-1.6.6s-.8.6-1.1 1.1c-.1.1-.2.3-.2.6zm6.5 3v1.8c0 .3-.1.6-.3.8-.2.3-.4.5-.7.7-.4.2-.9.3-1.3.3h-.7c-.2 0-.4-.1-.6-.2-.2-.1-.3-.2-.4-.4-.1-.2-.2-.4-.1-.6 0-.2 0-.5.1-.7s.2-.3.4-.4l.6-.3c.2-.1.4-.1.6-.2s.5-.1.7-.1.4-.1.7-.1c.2 0 .4-.1.6-.2.1-.2.3-.3.4-.4z" style="fill:#939598"/><path d="M90.5 33.5c.1 0 .1-.2 0-.2-.1.1-.1.2 0 .2z"/><linearGradient id="SVGID_1_" gradientUnits="userSpaceOnUse" x1="66.5" y1="-1780.92" x2="112.63" y2="-1780.92" gradientTransform="translate(0 1819.87)"><stop offset="0" style="stop-color:#ed1a3b"/><stop offset=".02" style="stop-color:#ee223a"/><stop offset=".23" style="stop-color:#f0532e"/><stop offset=".4" style="stop-color:#f26825"/><stop offset=".5" style="stop-color:#f37021"/><stop offset="1" style="stop-color:#fdb913"/></linearGradient><path d="M66.6 43.2c-.1.1-.1.1-.1.2 0 .2.1.3.3.3h.2c4.2-3.8 11-9 20-8.5a22 22 0 019.5 2.9c3 1.7 8.5 7.3 8.5 7.3.9.9 2.2 1.5 3.5 1.5 0 0 .8 0 1.5-.2.2-.1.3-.1.3-.1.4-.2 2.7-1.3 2.3-4.2-.1-1.2-.7-2.4-1.8-3.4-.2-.2-8.2-9.2-23.4-7.8-10 1.3-16.9 7.5-20.8 12" style="fill:url(#SVGID_1_)"/><linearGradient id="SVGID_2_" gradientUnits="userSpaceOnUse" x1="66.5" y1="12.42" x2="74.93" y2="12.42" gradientTransform="matrix(1 0 0 -1 0 52.4)"><stop offset="0" style="stop-color:#8dc63f"/><stop offset=".17" style="stop-color:#84c442"/><stop offset=".44" style="stop-color:#68bd49"/><stop offset=".78" style="stop-color:#1cb254"/><stop offset="1" style="stop-color:#00ac5b"/></linearGradient><path d="M67.1 43.5c0 .1-.2.2-.3.2-.2 0-.3-.1-.3-.3.2-2.3 4.1-23.9 8.4 3v.2c0 .2-.2.2-.4.2-.1 0-.2-.1-.2-.2 0 0-2.1-10.3-4.4-10.2-.9.1-1.7 1.9-2.8 7.1z" style="fill:url(#SVGID_2_)"/><linearGradient id="SVGID_3_" gradientUnits="userSpaceOnUse" x1="74.33" y1="21.56" x2="113.47" y2="21.56" gradientTransform="matrix(1 0 0 -1 0 52.4)"><stop offset="0" style="stop-color:#00b3f0"/><stop offset=".1" style="stop-color:#00a5e5"/><stop offset=".29" style="stop-color:#0092d6"/><stop offset=".47" style="stop-color:#0084ca"/><stop offset=".65" style="stop-color:#007ac2"/><stop offset=".83" style="stop-color:#0074bd"/><stop offset="1" style="stop-color:#0072bc"/></linearGradient><path d="M113.3 40.2c-.3-1.2-6.4-28.8-21.1-25.1-3.3.8-5.9 3.7-8 6.5-5.7 7.5-9 21.8-9.8 24.9-.1.2.1.3.2.4.1 0 .3 0 .4-.2.4-1.7 1.6-5.7 2.2-7.3C79 33.9 84.6 24 90.7 24.1c8 .1 11.9 15 13 19.1a5 5 0 009.8-1.2c0-.3 0-1-.2-1.8z" style="fill:url(#SVGID_3_)"/><path d="M112.2 41.9c0 2-1.7 3.7-3.7 3.7s-3.7-1.7-3.7-3.7 1.7-3.7 3.7-3.7 3.7 1.7 3.7 3.7z" style="fill:#00b3f0"/></svg>